<svg width="77" height="46" viewBox="0 0 77 46" fill="none" xmlns="http://www.w3.org/2000/svg">
<path d="M3.1583 25.2178C3.23577 25.179 3.28941 25.1104 3.34602 25.0447C3.92408 24.385 4.50511 23.7283 5.08316 23.0686C7.7291 20.0626 10.3721 17.0536 13.018 14.0477C14.5913 12.2566 16.1675 10.4686 17.7408 8.67753C17.7974 8.61185 17.851 8.54618 17.9046 8.48051C17.9136 8.46857 17.9106 8.4417 17.9046 8.42678C17.8987 8.41185 17.8778 8.39991 17.8629 8.39991C17.7586 8.39693 17.6543 8.39394 17.5501 8.39394H3.8913C3.77807 8.39394 3.66187 8.39394 3.54864 8.39096C3.48607 8.38797 3.45031 8.34618 3.44733 8.28051C3.44435 8.2029 3.44435 8.12827 3.44435 8.05066V4.67156C3.44435 4.27753 3.40561 4.31335 3.78999 4.31335H12.5919H23.3664C23.4706 4.31335 23.5749 4.31335 23.6792 4.31633C23.7656 4.31932 23.7954 4.34917 23.7984 4.43872C23.8014 4.50439 23.8014 4.57305 23.8014 4.63872V8.44767C23.8014 8.53424 23.7984 8.61782 23.7954 8.71036C23.7388 8.77603 23.6852 8.8417 23.6286 8.90738C22.0434 10.7133 20.4552 12.5163 18.87 14.3223C16.969 16.4805 15.065 18.6447 13.164 20.8059C11.9364 22.2029 10.7088 23.5999 9.48114 24.9939C9.37983 25.1074 9.2815 25.2238 9.18317 25.3432C9.17424 25.3551 9.17722 25.382 9.18317 25.3939C9.18913 25.4089 9.20999 25.4238 9.22489 25.4238C9.33812 25.4298 9.45432 25.4327 9.56755 25.4327H23.3991H23.998C24.0457 25.4327 24.0934 25.4357 24.1381 25.4477C24.1589 25.4536 24.1887 25.4835 24.1887 25.5074C24.1977 25.591 24.2007 25.6775 24.2007 25.7641V27.6835V29.1163V29.3462C24.1977 29.4984 24.1828 29.5163 24.0427 29.5193C23.9653 29.5223 23.8908 29.5193 23.8133 29.5193H21.5547H3.69464C3.51288 29.5193 3.3341 29.5163 3.15234 29.5163C3.1583 28.0835 3.1583 26.6507 3.1583 25.2178Z" fill="#5329BD"/>
<path d="M47.2128 19.9703C47.2634 19.9673 47.32 19.9584 47.3766 19.9584H50.8062C50.845 19.9584 50.8837 19.9554 50.9195 19.9673C50.9403 19.9733 50.9701 20.0091 50.9671 20.027C50.9612 20.1016 50.9463 20.1792 50.9284 20.2509C50.4457 22.1613 49.5548 23.8628 48.2676 25.3554C47.0191 26.8031 45.5084 27.8897 43.7593 28.6509C42.8207 29.0569 41.8523 29.3643 40.8482 29.5584C40.3059 29.6628 39.7576 29.7225 39.2064 29.7613C38.5866 29.8031 37.9669 29.7852 37.3501 29.7285C36.6081 29.6628 35.8781 29.5255 35.16 29.3315C31.6381 28.3822 29.2097 26.1524 27.833 24.1225C27.1656 23.1375 26.6471 22.0778 26.2657 20.9524C26.0125 20.2091 25.8218 19.4539 25.7026 18.6778C25.6192 18.1404 25.5745 17.5972 25.5626 17.0539C25.494 13.9285 26.6084 10.6927 28.8253 8.18223C30.184 6.64492 31.8139 5.50462 33.7179 4.75537C34.4985 4.4479 35.3031 4.21208 36.1254 4.05089C36.9508 3.88969 37.7851 3.8091 38.6254 3.82402C39.7457 3.84492 40.8422 4.02104 41.9149 4.34641C43.8785 4.94343 45.5769 5.97626 47.034 7.41805C48.354 8.72253 49.3462 10.2479 50.0375 11.9703C50.249 12.5016 50.4397 13.0419 50.5738 13.6001C50.6245 13.8121 50.6662 14.03 50.7049 14.2449C50.7168 14.3016 50.7139 14.3584 50.7168 14.4151C50.7198 14.4509 50.69 14.4897 50.6543 14.5016C50.5917 14.5255 50.5291 14.5464 50.4665 14.5673C49.8527 14.7733 49.2389 14.9792 48.6251 15.1822C46.1758 15.9972 43.7295 16.8091 41.2803 17.624C38.5896 18.5195 35.896 19.4151 33.2054 20.3106C33.1428 20.3315 33.0773 20.3494 33.0147 20.3733C32.9461 20.4031 32.8866 20.3972 32.8299 20.3464C32.7882 20.3076 32.7435 20.2718 32.7018 20.233C31.8645 19.4807 31.0272 18.7315 30.19 17.9792C30.1125 17.9106 30.0261 17.8479 29.9724 17.7524C29.9605 17.7315 29.9665 17.6867 29.9873 17.6778C30.0052 17.6688 30.0201 17.6598 30.038 17.6539C30.1006 17.633 30.1631 17.6091 30.2257 17.5882C32.8448 16.7166 35.464 15.8419 38.0831 14.9703C40.6217 14.1255 43.1604 13.2837 45.6991 12.4389C45.7795 12.4121 45.857 12.3763 45.9345 12.3434C45.9464 12.3375 45.9613 12.3106 45.9583 12.2957C45.9434 12.2509 45.9255 12.2061 45.9047 12.1643C45.273 10.9345 44.394 9.92253 43.2438 9.15238C42.2278 8.4688 41.1164 8.0091 39.9156 7.76731C39.5133 7.68671 39.1081 7.64193 38.6969 7.62701C37.6361 7.58522 36.6081 7.7494 35.607 8.08671C35.0826 8.26581 34.576 8.48074 34.0903 8.7494C33.1607 9.26283 32.3562 9.92552 31.6858 10.7464C30.8693 11.7494 30.2734 12.8718 29.9426 14.1285C29.6894 15.0778 29.6149 16.0449 29.7192 17.024C29.7341 17.1554 29.746 17.2897 29.7639 17.421C29.7937 17.6778 29.8741 17.9225 29.9307 18.1733C30.0142 18.5464 30.1006 18.9166 30.19 19.2867C30.2138 19.3882 30.2376 19.4927 30.2734 19.5882C30.4552 20.0897 30.6399 20.5912 30.8246 21.0927C30.8485 21.1554 30.8812 21.2151 30.911 21.2748C31.6619 22.7763 32.7733 23.9404 34.2006 24.8061C35.1153 25.3613 36.0986 25.7255 37.1504 25.9136C37.6123 25.9972 38.0741 26.039 38.5419 26.0509C38.9621 26.0628 39.3792 26.03 39.7964 25.9733C41.0002 25.8121 42.1265 25.421 43.1813 24.821C44.984 23.7972 46.3844 22.0897 47.0667 20.2807C47.1114 20.1822 47.1323 20.0688 47.2128 19.9703Z" fill="#5329BD"/>
<path d="M55.8894 4.31698C55.9907 4.40653 56.0444 4.49608 56.107 4.57966C58.1182 7.2931 60.1265 10.0035 62.1378 12.717C62.3017 12.9379 62.4655 13.1618 62.6324 13.3827C62.6562 13.4125 62.6801 13.4424 62.7099 13.4662C62.7218 13.4752 62.7516 13.4782 62.7605 13.4692C62.7963 13.4364 62.8291 13.4035 62.8559 13.3647C63.0376 13.12 63.2224 12.8752 63.4041 12.6304C65.4005 9.94385 67.3969 7.25728 69.3933 4.56772C69.432 4.51399 69.4767 4.46325 69.5124 4.40653C69.5601 4.33489 69.6227 4.30504 69.7061 4.30802C69.7627 4.31101 69.8193 4.30802 69.8789 4.30802H74.3097C74.405 4.30802 74.5004 4.29608 74.5987 4.32593C74.6017 4.3528 74.6136 4.38563 74.6017 4.40653C74.557 4.48116 74.5093 4.54981 74.4587 4.61847C73.6393 5.71996 72.8199 6.82444 72.0034 7.92593C69.8253 10.8573 67.6472 13.7886 65.469 16.723C65.4124 16.7976 65.3469 16.8662 65.3111 16.9677C65.3528 17.0633 65.4243 17.1409 65.4839 17.2244C65.9309 17.8304 66.3808 18.4364 66.8307 19.0394C69.3247 22.4035 71.8157 25.7677 74.3097 29.1319C74.3544 29.1946 74.405 29.2513 74.4438 29.317C74.4766 29.3707 74.557 29.4155 74.5153 29.4871C74.4855 29.5379 74.411 29.514 74.3574 29.514H69.6704C69.6138 29.514 69.5571 29.508 69.5065 29.505C69.4141 29.4334 69.3635 29.3409 69.3009 29.2573C68.2223 27.8006 67.1436 26.3468 66.062 24.8901C65.0161 23.4812 63.9733 22.0692 62.9274 20.6603C62.8767 20.5916 62.8201 20.5259 62.7635 20.4633C62.7546 20.4543 62.7218 20.4543 62.7129 20.4633C62.6831 20.4871 62.6562 20.514 62.6324 20.5438C62.5132 20.705 62.394 20.8662 62.2748 21.0244C60.2338 23.7737 58.1897 26.52 56.1487 29.2692C55.9341 29.5588 56.0205 29.514 55.66 29.514C54.1821 29.517 52.7072 29.514 51.2293 29.514C51.1428 29.514 51.0594 29.511 50.973 29.508C50.9343 29.508 50.9164 29.4603 50.9402 29.4244C50.9849 29.3618 51.0266 29.2991 51.0743 29.2394C51.7239 28.3677 52.3705 27.4931 53.02 26.6215C55.365 23.4662 57.707 20.314 60.052 17.1588C60.8774 16.0483 61.7087 14.9438 62.5341 13.8334C62.5937 13.7558 62.695 13.6931 62.6801 13.5707C62.5937 13.517 62.4953 13.5438 62.406 13.5438C60.9578 13.5409 59.5097 13.5438 58.0616 13.5438H57.862C57.6504 13.5438 57.6683 13.5498 57.5342 13.3707C56.9442 12.5737 56.3543 11.7767 55.7613 10.9797C54.2 8.8722 52.6386 6.76474 51.0773 4.65728C51.0147 4.57369 50.9551 4.48713 50.8955 4.40056C50.8717 4.36474 50.8896 4.31698 50.9283 4.31698C51.0058 4.31399 51.0803 4.31101 51.1577 4.31101H55.6451C55.7136 4.31399 55.8 4.31698 55.8894 4.31698Z" fill="#5329BD"/>
<path d="M7.55012 40.7107C7.85107 40.4927 8.02091 40.2121 8.05666 39.8689H9.42135C9.41241 40.2629 9.27833 40.6241 9.0191 40.9584C8.75987 41.2927 8.40529 41.5584 7.95536 41.7584C7.50543 41.9584 7.0108 42.0599 6.47447 42.0599C5.79808 42.0599 5.21109 41.9286 4.71349 41.6689C4.21588 41.4092 3.83449 41.036 3.56632 40.5495C3.29815 40.0629 3.16406 39.4838 3.16406 38.8092V38.6539C3.16406 38.0271 3.29517 37.4718 3.56036 36.9853C3.82555 36.4987 4.20396 36.1256 4.70157 35.8599C5.19917 35.5942 5.78318 35.4629 6.46255 35.4629C7.02868 35.4629 7.53522 35.5584 7.97919 35.7524C8.42316 35.9465 8.77476 36.2211 9.03101 36.5823C9.28727 36.9435 9.41837 37.3584 9.42731 37.8211H8.06262C8.03581 37.4271 7.86895 37.1047 7.568 36.851C7.26706 36.5972 6.89162 36.4718 6.44765 36.4718C5.87257 36.4718 5.42563 36.6599 5.11276 37.039C4.79692 37.4151 4.63602 37.9614 4.62708 38.6748V38.8689C4.62708 39.5763 4.78202 40.1136 5.0919 40.4808C5.40179 40.851 5.86066 41.036 6.46255 41.036C6.88268 41.036 7.2462 40.9286 7.55012 40.7107Z" fill="#5329BD"/>
<path d="M10.8251 37.0509C11.0933 36.5524 11.4866 36.1644 12.0021 35.8838C12.5176 35.6032 13.1165 35.4629 13.8048 35.4629C14.4722 35.4629 15.0652 35.5972 15.5777 35.8659C16.0931 36.1345 16.4924 36.5166 16.7755 37.0151C17.0586 37.5136 17.1986 38.0898 17.1986 38.7495V38.833C17.1986 39.4838 17.0556 40.048 16.7665 40.5315C16.4775 41.0121 16.0812 41.3883 15.5687 41.6569C15.0592 41.9256 14.4752 42.0599 13.8167 42.0599C13.1492 42.0599 12.5622 41.9256 12.0557 41.6569C11.5492 41.3883 11.1529 41.0121 10.8668 40.5256C10.5778 40.039 10.4318 39.4718 10.4229 38.8211V38.7017C10.4229 38.0987 10.5569 37.5495 10.8251 37.0509ZM12.1332 40.0062C12.2911 40.3405 12.5146 40.5942 12.8006 40.7704C13.0867 40.9465 13.4263 41.036 13.8167 41.036C14.207 41.036 14.5437 40.9495 14.8327 40.7763C15.1188 40.6032 15.3423 40.3524 15.5002 40.0181C15.6581 39.6838 15.7356 39.2808 15.7356 38.8092V38.7017C15.7356 38.251 15.6581 37.8599 15.5002 37.5286C15.3423 37.1942 15.1188 36.9375 14.8238 36.7524C14.5318 36.5674 14.1891 36.4748 13.8018 36.4748C13.4204 36.4748 13.0926 36.5614 12.8125 36.7345C12.5354 36.9077 12.3149 37.1614 12.157 37.4927C11.9991 37.8271 11.9097 38.2211 11.8918 38.6778V38.833C11.8978 39.2838 11.9753 39.6748 12.1332 40.0062Z" fill="#5329BD"/>
<path d="M18.8968 33.3973C19.0458 33.2659 19.2484 33.1973 19.5106 33.1973C19.7699 33.1973 19.9755 33.2629 20.1304 33.3973C20.2824 33.5286 20.3598 33.7017 20.3598 33.9077C20.3598 34.1077 20.2824 34.2719 20.1304 34.4003C19.9784 34.5286 19.7699 34.5943 19.5106 34.5943C19.2514 34.5943 19.0458 34.5316 18.8968 34.4062C18.7478 34.2808 18.6733 34.1167 18.6733 33.9077C18.6763 33.7017 18.7478 33.5316 18.8968 33.3973ZM20.2466 41.9405H18.7717V35.5823H20.2466V41.9405Z" fill="#5329BD"/>
<path d="M23.5035 35.5823L23.572 36.3644C23.8402 36.0689 24.1561 35.842 24.5196 35.6898C24.8801 35.5376 25.2883 35.46 25.7442 35.46C26.513 35.46 27.094 35.654 27.4843 36.0391C27.8747 36.4241 28.0743 36.9973 28.0832 37.7615V41.9406H26.6232V37.7764C26.6143 37.3346 26.501 37.0152 26.2835 36.8122C26.066 36.6122 25.7204 36.5107 25.2466 36.5107C24.8652 36.5107 24.5345 36.5913 24.2514 36.7525C23.9683 36.9137 23.7538 37.1376 23.6048 37.4271V41.9406H22.1299V35.5823H23.5035Z" fill="#5329BD"/>
<path d="M31.325 40.9283H35.431V41.9402H29.5312V41.0865L33.4137 36.6089H29.5998V35.582H35.2641V36.4119L31.325 40.9283Z" fill="#5329BD"/>
<path d="M38.0262 41.6749C37.5018 41.4182 37.0966 41.054 36.8075 40.5794C36.5185 40.1047 36.3755 39.5555 36.3755 38.9286V38.7346C36.3755 38.1316 36.5066 37.5853 36.7658 37.0898C37.0251 36.5973 37.4064 36.2003 37.907 35.9047C38.4076 35.6092 38.9916 35.46 39.6591 35.46C40.2997 35.46 40.848 35.5823 41.3068 35.8271C41.7657 36.0719 42.1203 36.4301 42.3706 36.9047C42.6209 37.3794 42.746 37.9495 42.746 38.6152V39.1316H37.8623V39.1555C37.8713 39.5316 37.9666 39.8629 38.1484 40.1435C38.3301 40.4241 38.5715 40.645 38.8724 40.8062C39.1734 40.9674 39.519 41.048 39.9094 41.048C40.3265 41.048 40.69 40.9764 40.994 40.8361C41.3009 40.6958 41.575 40.4898 41.8163 40.2152L42.6238 40.854C42.3169 41.248 41.9296 41.5465 41.4618 41.7495C40.994 41.9555 40.4517 42.057 39.8408 42.057C39.1555 42.06 38.5506 41.9316 38.0262 41.6749ZM38.8188 36.6779C38.5715 36.8152 38.3659 37.0092 38.199 37.2629C38.0322 37.5167 37.9249 37.8182 37.8802 38.1704H41.2889V38.0749C41.2711 37.7376 41.1936 37.448 41.0595 37.2092C40.9254 36.9674 40.7407 36.7853 40.5023 36.6629C40.2669 36.5376 39.9839 36.4749 39.6591 36.4749C39.3462 36.4749 39.0661 36.5435 38.8188 36.6779Z" fill="#5329BD"/>
<path d="M46.6762 37.785L48.1929 35.582H49.8347L47.5254 38.7134L49.9181 41.9402H48.2763L46.6762 39.6537L45.103 41.9402H43.4463L45.839 38.7134L43.5148 35.582H45.1715L46.6762 37.785Z" fill="#5329BD"/>
<path d="M51.6282 41.6155C51.4434 41.4543 51.3511 41.2573 51.3511 41.0245C51.3511 40.7827 51.4434 40.5827 51.6282 40.4215C51.8129 40.2603 52.0424 40.1797 52.3105 40.1797C52.5698 40.1797 52.7962 40.2603 52.9929 40.4215C53.1865 40.5827 53.2849 40.7797 53.2849 41.0125C53.2849 41.2543 53.1865 41.4543 52.9929 41.6155C52.7992 41.7767 52.5698 41.8573 52.3105 41.8573C52.0424 41.8543 51.8159 41.7767 51.6282 41.6155Z" fill="#5329BD"/>
<path d="M56.7237 35.5823L56.7923 36.3644C57.0604 36.0689 57.3763 35.842 57.7398 35.6898C58.1003 35.5376 58.5085 35.46 58.9644 35.46C59.7332 35.46 60.3142 35.654 60.7045 36.0391C61.0949 36.4241 61.2945 36.9973 61.3035 37.7615V41.9406H59.8434V37.7764C59.8345 37.3346 59.7213 37.0152 59.5037 36.8122C59.2862 36.6122 58.9406 36.5107 58.4668 36.5107C58.0854 36.5107 57.7547 36.5913 57.4716 36.7525C57.1886 36.9137 56.974 37.1376 56.825 37.4271V41.9406H55.3501V35.5823H56.7237Z" fill="#5329BD"/>
<path d="M64.411 41.6749C63.8866 41.4182 63.4813 41.054 63.1923 40.5794C62.9033 40.1047 62.7603 39.5555 62.7603 38.9286V38.7346C62.7603 38.1316 62.8914 37.5853 63.1506 37.0898C63.4098 36.5973 63.7912 36.2003 64.2918 35.9047C64.7924 35.6092 65.3764 35.46 66.0438 35.46C66.6845 35.46 67.2327 35.5823 67.6916 35.8271C68.1505 36.0719 68.505 36.4301 68.7553 36.9047C69.0056 37.3794 69.1308 37.9495 69.1308 38.6152V39.1316H64.2471V39.1555C64.256 39.5316 64.3514 39.8629 64.5332 40.1435C64.7149 40.4241 64.9563 40.645 65.2572 40.8062C65.5582 40.9674 65.9038 41.048 66.2941 41.048C66.7113 41.048 67.0748 40.9764 67.3787 40.8361C67.6856 40.6958 67.9598 40.4898 68.2011 40.2152L69.0086 40.854C68.7017 41.248 68.3143 41.5465 67.8465 41.7495C67.3787 41.9555 66.8364 42.057 66.2256 42.057C65.5403 42.06 64.9354 41.9316 64.411 41.6749ZM65.2036 36.6779C64.9563 36.8152 64.7507 37.0092 64.5838 37.2629C64.4169 37.5167 64.3097 37.8182 64.265 38.1704H67.6737V38.0749C67.6558 37.7376 67.5784 37.448 67.4443 37.2092C67.3102 36.9674 67.1255 36.7853 66.8871 36.6629C66.6517 36.5376 66.3686 36.4749 66.0438 36.4749C65.731 36.4749 65.4509 36.5435 65.2036 36.6779Z" fill="#5329BD"/>
<path d="M72.3788 34.0303V35.5825H73.7286V36.5228H72.3788V40.2661C72.3788 40.5228 72.4414 40.7109 72.5665 40.8333C72.6916 40.9527 72.8972 41.0124 73.1863 41.0124C73.3442 41.0124 73.5379 40.9885 73.7703 40.9407V41.9288C73.4366 42.0183 73.0939 42.0601 72.7393 42.0601C72.1374 42.0601 71.6815 41.9139 71.3746 41.6213C71.0677 41.3288 70.9158 40.893 70.9158 40.3139V36.5228H69.6494V35.5825H70.9158V34.0303H72.3788Z" fill="#5329BD"/>
</svg>
